<?xml version="1.0" standalone="no"?>
<!DOCTYPE svg PUBLIC "-//W3C//DTD SVG 20010904//EN"
 "http://www.w3.org/TR/2001/REC-SVG-20010904/DTD/svg10.dtd">
<svg version="1.0" xmlns="http://www.w3.org/2000/svg"
 width="280.000000pt" height="160.000000pt" viewBox="0 0 280.000000 160.000000"
 preserveAspectRatio="xMidYMid meet">

<g transform="translate(0.000000,160.000000) scale(0.100000,-0.100000)"
fill="#000000" stroke="none">
<path d="M1316 1323 c-47 -4 -48 -5 -25 -16 l24 -13 3 -209 c1 -116 0 -220 -3
-232 -4 -16 -13 -23 -30 -23 -14 0 -25 -3 -25 -7 0 -5 36 -8 80 -8 44 0 80 3
80 8 0 4 -11 7 -25 7 -18 0 -26 7 -31 26 -10 39 4 170 20 203 26 49 88 76 123
53 23 -15 33 -65 33 -173 l0 -109 -25 0 c-14 0 -25 -3 -25 -7 0 -5 34 -8 75
-8 41 0 75 3 75 8 0 4 -11 7 -24 7 -24 0 -24 1 -27 123 -5 142 -16 172 -74
183 -48 9 -82 -2 -117 -37 -16 -16 -32 -29 -35 -29 -3 0 -3 59 -2 130 2 72 4
129 4 128 0 -1 -22 -3 -49 -5z"/>
<path d="M108 1128 c-22 -8 -28 -16 -28 -40 l0 -30 26 31 c50 59 128 33 140
-46 l7 -43 -51 0 c-62 0 -98 -13 -134 -48 -55 -51 -28 -130 49 -147 39 -8 99
18 108 46 10 29 25 22 25 -11 0 -32 6 -34 61 -23 32 6 33 7 9 13 -25 6 -25 8
-30 130 -3 69 -9 131 -14 139 -22 35 -111 50 -168 29z m130 -147 c10 -6 11
-19 7 -45 -16 -84 -91 -140 -135 -101 -22 20 -26 65 -9 98 16 29 13 27 56 42
45 16 63 18 81 6z"/>
<path d="M1080 1133 c-45 -17 -64 -68 -40 -112 5 -10 43 -40 84 -65 97 -61
110 -99 44 -127 -45 -19 -108 5 -128 48 -22 47 -30 41 -30 -22 0 -30 4 -55 10
-55 5 0 7 7 4 15 -8 19 0 19 54 0 82 -29 172 6 172 66 0 46 -14 64 -82 105
-83 49 -98 63 -98 89 0 30 19 45 57 45 36 0 83 -36 83 -65 0 -8 5 -15 10 -15
11 0 13 43 3 78 -4 16 -8 20 -13 12 -6 -9 -13 -9 -28 -1 -21 11 -76 14 -102 4z"/>
<path d="M310 1121 c0 -5 8 -11 18 -13 13 -4 36 -48 75 -147 32 -77 57 -150
57 -160 0 -28 -26 -84 -48 -105 -14 -12 -32 -17 -59 -14 -29 2 -38 -1 -38 -12
0 -11 13 -16 43 -18 35 -3 46 1 65 22 12 13 58 116 103 228 l81 203 37 3 36 3
0 -111 c0 -133 13 -172 61 -189 45 -16 94 -4 129 30 15 16 30 29 32 29 3 0 3
-13 0 -30 -4 -29 -3 -30 31 -30 19 0 44 3 54 7 16 6 15 8 -7 13 l-25 6 -3 147
-3 147 -44 0 c-25 0 -45 -4 -45 -10 0 -5 9 -10 20 -10 19 0 20 -7 20 -90 0
-127 -27 -182 -97 -196 -25 -5 -34 -1 -52 21 -19 25 -21 40 -21 156 l0 129
-105 0 c-63 0 -105 -4 -105 -10 0 -5 14 -10 30 -10 17 0 30 -5 30 -10 0 -16
-84 -230 -90 -230 -3 0 -23 49 -46 108 -23 59 -45 115 -49 126 -7 15 -5 17 13
11 13 -4 22 -2 22 4 0 7 -24 11 -60 11 -33 0 -60 -4 -60 -9z"/>
<path d="M2713 887 c16 -7 35 -23 42 -37 8 -14 14 -19 15 -12 0 19 -46 62 -67
62 -12 -1 -9 -5 10 -13z"/>
<path d="M2654 866 c-31 -48 25 -108 76 -83 13 7 25 19 27 27 4 13 3 13 -6 0
-10 -13 -12 -13 -21 0 -12 19 -12 27 0 35 16 10 1 25 -26 25 -21 0 -24 -5 -24
-35 0 -39 -15 -47 -23 -13 -4 13 0 33 9 45 8 13 12 23 9 23 -2 0 -12 -11 -21
-24z m66 -16 c0 -5 -7 -10 -15 -10 -8 0 -15 5 -15 10 0 6 7 10 15 10 8 0 15
-4 15 -10z m0 -40 c9 -17 8 -20 -14 -20 -19 0 -23 4 -19 20 3 11 9 20 14 20 4
0 13 -9 19 -20z"/>
<path d="M899 737 c-13 -13 -29 -32 -36 -43 -10 -17 -12 -15 -12 19 l-1 37
-50 0 c-50 0 -70 -16 -27 -22 21 -3 22 -7 25 -135 3 -147 -1 -156 -65 -146
l-33 5 0 97 c0 167 -21 201 -123 201 -72 0 -97 -12 -97 -48 l0 -27 23 28 c14
17 35 30 57 33 49 8 79 -18 87 -74 l6 -42 -39 0 c-121 0 -199 -72 -168 -155 9
-23 57 -45 99 -45 27 0 44 8 67 30 16 17 31 30 33 30 1 0 6 -11 9 -25 6 -25 6
-25 131 -25 81 0 125 4 125 11 0 5 -4 7 -10 4 -5 -3 -19 -1 -30 5 -17 9 -20
21 -20 91 0 49 6 94 15 117 30 71 86 107 98 62 6 -24 42 -27 51 -4 18 46 -73
62 -115 21z m-249 -162 c0 -62 -53 -135 -99 -135 -52 0 -76 54 -48 110 16 33
52 50 105 50 38 0 42 -2 42 -25z"/>
<path d="M1105 744 c-61 -21 -95 -80 -95 -164 0 -47 32 -115 64 -135 66 -44
162 -22 201 45 27 47 28 152 1 196 -35 58 -103 82 -171 58z m95 -31 c56 -51
62 -213 9 -255 -24 -20 -61 -23 -90 -8 -67 36 -76 220 -12 269 35 28 57 26 93
-6z"/>
<path d="M1424 748 c-52 -13 -69 -42 -69 -114 0 -34 -4 -66 -8 -70 -13 -13 -7
-69 9 -92 15 -21 14 -24 -9 -42 -50 -39 -42 -104 15 -140 28 -18 46 -21 116
-18 78 3 86 5 108 31 30 35 31 85 3 120 -20 27 -45 36 -151 57 -62 12 -90 37
-81 71 6 23 16 24 33 4 32 -38 137 -25 167 22 19 28 22 108 5 125 -21 21 -13
27 37 26 l50 0 62 -154 61 -155 -16 -43 c-25 -66 -59 -89 -108 -75 -23 6 -28
4 -28 -11 0 -39 95 -29 123 13 7 12 49 111 92 221 57 145 83 200 96 203 37 10
18 18 -41 18 -33 0 -60 -3 -60 -7 0 -5 11 -8 24 -8 14 0 27 -4 30 -8 6 -9 -76
-232 -85 -232 -4 0 -26 48 -49 108 -23 59 -44 112 -47 119 -2 6 4 13 14 16 10
3 -27 5 -82 6 -55 1 -118 5 -140 10 -22 4 -54 4 -71 -1z m81 -33 c34 -33 35
-108 3 -142 -39 -42 -91 -25 -108 36 -13 49 -3 98 24 116 30 21 53 18 81 -10z
m-8 -295 c73 -12 93 -25 93 -60 0 -44 -36 -63 -119 -62 -76 0 -126 19 -136 53
-14 45 36 93 85 83 14 -3 48 -10 77 -14z"/>
<path d="M2024 750 c-45 -10 -54 -18 -54 -48 l0 -27 23 28 c14 17 35 30 57 33
49 8 79 -18 87 -74 l6 -42 -39 0 c-121 0 -199 -72 -168 -155 9 -23 57 -45 99
-45 27 0 44 8 67 30 16 17 31 30 33 30 1 0 6 -11 9 -25 6 -25 6 -25 131 -25
81 0 125 4 125 11 0 5 -5 7 -10 4 -6 -3 -19 -3 -30 0 -18 6 -20 15 -20 98 0
112 21 167 69 186 66 28 81 -4 81 -171 0 -115 -1 -120 -20 -115 -11 3 -20 1
-20 -4 0 -5 32 -9 70 -9 43 0 70 4 70 11 0 5 -4 8 -9 5 -5 -4 -16 -3 -25 0
-13 5 -16 23 -16 100 0 116 15 157 64 181 20 9 36 20 36 24 0 15 -60 -13 -79
-37 -21 -27 -31 -30 -31 -11 0 19 -30 43 -62 51 -36 8 -78 -9 -105 -42 l-23
-27 0 33 0 33 -50 -2 c-51 -3 -68 -15 -27 -21 21 -3 22 -7 25 -139 3 -152 2
-153 -62 -142 l-36 6 0 96 c0 113 -13 166 -43 185 -28 18 -84 25 -123 16z
m116 -175 c0 -62 -53 -135 -99 -135 -52 0 -76 54 -48 110 16 33 52 50 105 50
38 0 42 -2 42 -25z"/>
<path d="M2650 744 c0 -8 6 -14 13 -14 17 0 16 4 23 -159 l6 -134 -26 5 c-14
3 -26 1 -26 -3 0 -5 34 -9 75 -9 46 0 75 4 75 11 0 5 -4 7 -10 4 -5 -3 -19 -1
-30 5 -18 10 -20 21 -20 133 -1 101 -4 126 -18 143 -22 26 -62 38 -62 18z"/>
<path d="M720 172 c0 -4 6 -17 14 -28 8 -11 16 -29 18 -41 2 -16 8 -10 25 28
12 27 18 49 14 49 -4 0 -13 -12 -20 -27 l-13 -28 -14 28 c-14 27 -24 35 -24
19z"/>
<path d="M2010 165 c0 -8 -9 -15 -20 -15 -13 0 -22 -9 -26 -26 -8 -33 13 -56
44 -48 19 6 22 13 22 55 0 27 -4 49 -10 49 -5 0 -10 -7 -10 -15z m0 -50 c0
-16 -6 -25 -15 -25 -9 0 -15 9 -15 25 0 16 6 25 15 25 9 0 15 -9 15 -25z"/>
<path d="M2080 130 c0 -27 5 -50 10 -50 6 0 10 14 10 30 0 20 5 30 15 30 10 0
15 -10 15 -30 0 -16 5 -30 10 -30 11 0 13 30 4 54 -3 9 -15 16 -25 16 -10 0
-19 7 -19 15 0 8 -4 15 -10 15 -5 0 -10 -22 -10 -50z"/>
<path d="M2320 130 c0 -27 4 -50 10 -50 5 0 9 22 9 50 -1 28 -6 50 -10 50 -5
0 -9 -22 -9 -50z"/>
<path d="M2402 135 c0 -25 4 -47 9 -51 5 -3 9 9 9 25 0 21 5 31 15 31 10 0 15
-10 15 -30 0 -16 5 -30 11 -30 6 0 9 14 7 33 -2 24 -8 33 -25 35 -13 2 -23 10
-23 18 0 8 -4 14 -8 14 -5 0 -9 -20 -10 -45z"/>
<path d="M1279 159 c-2 -30 3 -74 10 -81 3 -4 6 13 6 37 -1 41 -14 76 -16 44z"/>
<path d="M2358 158 c-7 -21 6 -81 18 -85 9 -3 10 15 5 90 -1 12 -19 8 -23 -5z"/>
<path d="M1417 149 c-24 -14 -22 -56 4 -70 15 -8 24 -8 32 0 8 8 5 11 -11 11
-12 0 -22 5 -22 10 0 6 9 10 20 10 22 0 27 22 7 38 -8 7 -18 7 -30 1z m33 -19
c0 -5 -7 -10 -15 -10 -8 0 -15 5 -15 10 0 6 7 10 15 10 8 0 15 -4 15 -10z"/>
<path d="M1898 149 c-24 -13 -23 -56 1 -69 21 -11 51 9 51 35 0 11 -26 46 -33
45 -1 0 -10 -5 -19 -11z m32 -34 c0 -15 -6 -25 -14 -25 -19 0 -28 14 -20 34
10 25 34 19 34 -9z"/>
<path d="M2175 144 c-19 -20 -19 -38 1 -58 18 -18 30 -20 39 -6 3 6 -3 10 -14
10 -12 0 -21 5 -21 10 0 6 9 10 20 10 13 0 20 7 20 19 0 25 -26 34 -45 15z
m35 -14 c0 -5 -7 -10 -15 -10 -8 0 -15 5 -15 10 0 6 7 10 15 10 8 0 15 -4 15
-10z"/>
<path d="M817 144 c-12 -13 -8 -51 8 -64 21 -18 47 5 43 39 -3 26 -35 41 -51
25z m41 -32 c3 -17 -2 -22 -17 -22 -14 0 -21 6 -21 18 0 38 33 41 38 4z"/>
<path d="M890 121 c0 -33 20 -54 44 -45 11 4 16 17 14 43 l-1 36 -4 -32 c-3
-20 -10 -33 -19 -33 -14 0 -18 10 -15 43 1 9 -3 17 -8 17 -6 0 -11 -13 -11
-29z"/>
<path d="M970 115 c0 -19 5 -35 10 -35 6 0 10 13 10 29 0 16 6 32 13 34 6 3 2
6 -10 6 -20 1 -23 -4 -23 -34z"/>
<path d="M1061 98 c1 -29 3 -45 6 -35 2 10 10 17 16 16 32 -4 38 2 35 34 -2
27 -8 33 -30 35 -28 3 -28 2 -27 -50z m47 14 c2 -14 -2 -22 -12 -22 -19 0 -29
17 -22 36 8 22 30 12 34 -14z"/>
<path d="M1145 140 c-4 -7 2 -9 19 -4 16 4 26 2 26 -5 0 -6 -9 -11 -20 -11
-24 0 -39 -29 -20 -40 7 -4 21 -5 32 -2 28 7 21 66 -9 70 -11 2 -24 -2 -28 -8z
m40 -40 c-3 -5 -13 -10 -21 -10 -8 0 -12 5 -9 10 3 6 13 10 21 10 8 0 12 -4 9
-10z"/>
<path d="M1220 115 c0 -19 4 -35 9 -35 5 0 7 10 4 21 -4 15 0 27 12 35 18 13
18 14 -3 14 -18 0 -22 -6 -22 -35z"/>
<path d="M1320 115 c0 -19 5 -35 10 -35 6 0 10 14 10 30 0 42 27 40 33 -2 4
-32 4 -32 5 5 2 35 0 37 -28 37 -28 0 -30 -3 -30 -35z"/>
<path d="M1481 113 c1 -27 3 -31 6 -13 2 14 12 31 21 38 14 11 13 12 -6 12
-19 0 -22 -5 -21 -37z"/>
<path d="M1573 115 c0 -22 2 -30 4 -17 2 12 2 30 0 40 -3 9 -5 -1 -4 -23z"/>
<path d="M1600 115 c0 -19 5 -35 10 -35 6 0 10 14 10 30 0 42 27 40 33 -2 4
-32 4 -32 5 5 2 35 0 37 -28 37 -28 0 -30 -3 -30 -35z"/>
<path d="M1727 143 c-11 -10 -8 -48 4 -60 6 -6 18 -9 25 -6 8 3 14 0 14 -6 0
-6 -10 -11 -22 -11 -17 0 -19 -3 -10 -12 20 -20 42 10 42 58 0 39 -2 44 -23
44 -13 0 -27 -3 -30 -7z m41 -31 c3 -17 -2 -22 -17 -22 -14 0 -21 6 -21 18 0
38 33 41 38 4z"/>
<path d="M1807 143 c-12 -11 -8 -50 7 -62 30 -25 71 24 46 54 -13 16 -42 20
-53 8z m43 -28 c0 -25 -23 -35 -35 -15 -10 16 2 40 20 40 9 0 15 -9 15 -25z"/>
<path d="M2245 140 c-5 -9 -1 -10 13 -6 11 4 23 2 27 -4 3 -6 -3 -10 -15 -10
-23 0 -38 -26 -24 -40 5 -5 20 -7 32 -3 32 8 28 66 -5 71 -11 2 -24 -2 -28 -8z
m40 -40 c-3 -5 -13 -10 -21 -10 -8 0 -12 5 -9 10 3 6 13 10 21 10 8 0 12 -4 9
-10z"/>
</g>
</svg>
